HIERARCHY
ROOT Hips
{
	OFFSET 0.000000 95.729000 0.000000
	CHANNELS 6 Xposition Yposition Zposition Yrotation Xrotation Zrotation
	JOINT RightUpLeg
	{
		OFFSET -9.625000 -1.639000 0.000000
		CHANNELS 3 Yrotation Xrotation Zrotation
		JOINT RightLeg
		{
			OFFSET 0.000000 -41.481000 0.000000
			CHANNELS 3 Yrotation Xrotation Zrotation
			JOINT RightFoot
			{
				OFFSET 0.000000 -43.120000 0.000000
				CHANNELS 3 Yrotation Xrotation Zrotation
				End Site
				{
					OFFSET 0.000000 -7.850000 17.850000
				}
			}
		}
	}
	JOINT LeftUpLeg
	{
		OFFSET 9.625000 -1.639000 0.000000
		CHANNELS 3 Yrotation Xrotation Zrotation
		JOINT LeftLeg
		{
			OFFSET 0.000000 -43.120000 0.000000
			CHANNELS 3 Yrotation Xrotation Zrotation
			JOINT LeftFoot
			{
				OFFSET 0.000000 -43.120000 0.000000
				CHANNELS 3 Yrotation Xrotation Zrotation
				End Site
				{
					OFFSET 0.000000 -7.850000 17.850000
				}
			}
		}
	}
	JOINT Spine
	{
		OFFSET 0.000000 16.395000 0.000000
		CHANNELS 3 Yrotation Xrotation Zrotation
		JOINT Spine1
		{
			OFFSET 0.000000 10.023000 0.000000
			CHANNELS 3 Yrotation Xrotation Zrotation
			JOINT Spine2
			{
				OFFSET 0.000000 10.437000 0.000000
				CHANNELS 3 Yrotation Xrotation Zrotation
				JOINT Spine3
				{
					OFFSET 0.000000 10.023000 0.000000
					CHANNELS 3 Yrotation Xrotation Zrotation
					JOINT Neck
					{
						OFFSET 0.000000 10.713000 0.000000
						CHANNELS 3 Yrotation Xrotation Zrotation
						JOINT Head
						{
							OFFSET 0.000000 9.720000 0.000000
							CHANNELS 3 Yrotation Xrotation Zrotation
							End Site
							{
								OFFSET 0.000000 16.450000 0.000000
							}
						}
					}
					JOINT RightShoulder
					{
						OFFSET -3.275000 7.142000 0.000000
						CHANNELS 3 Yrotation Xrotation Zrotation
						JOINT RightArm
						{
							OFFSET -13.100000 0.000000 0.000000
							CHANNELS 3 Yrotation Xrotation Zrotation
							JOINT RightForeArm
							{
								OFFSET -27.250000 0.000000 0.000000
								CHANNELS 3 Yrotation Xrotation Zrotation
								JOINT RightHand
								{
									OFFSET -26.750000 0.000000 0.000000
									CHANNELS 3 Yrotation Xrotation Zrotation
									End Site
									{
										OFFSET -3.479000 0.532000 0.778000
									}
								}
							}
						}
					}
					JOINT LeftShoulder
					{
						OFFSET 3.275000 7.142000 0.000000
						CHANNELS 3 Yrotation Xrotation Zrotation
						JOINT LeftArm
						{
							OFFSET 13.100000 0.000000 0.000000
							CHANNELS 3 Yrotation Xrotation Zrotation
							JOINT LeftForeArm
							{
								OFFSET 27.250000 0.000000 0.000000
								CHANNELS 3 Yrotation Xrotation Zrotation
								JOINT LeftHand
								{
									OFFSET 26.750000 0.000000 0.000000
									CHANNELS 3 Yrotation Xrotation Zrotation
									End Site
									{
										OFFSET 3.479000 0.532000 0.778000
									}
								}
							}
						}
					}
				}
			}
		}
	}
}
MOTION
Frames: 28
Frame Time: 0.010000
31.41 94.85 33.57 -118.69 -3.16 0.47 -2.62 -8.12 -3.9 0.0 25.32 -0.0 -15.02 -12.79 5.34 -3.84 -14.4 0.95 0.0 25.22 0.0 -5.55 -12.85 1.86 -11.84 1.86 -0.79 -2.97 0.43 -0.16 -4.89 0.67 -0.28 1.96 0.54 -0.14 3.75 0.56 -0.07 37.31 14.11 2.0 71.55 -10.52 -2.31 75.07 -39.73 2.55 -9.2 38.33 -16.4 -9.48 13.3 -27.27 49.04 -8.37 -11.85 -20.76 5.97 -74.86 4.84 -20.89 1.29 -17.88 54.73 -0.86
31.39 94.86 33.55 -118.59 -2.85 0.38 -2.37 -8.29 -3.77 0.0 25.18 0.0 -15.42 -12.72 5.43 -3.11 -14.74 1.08 -0.0 25.3 -0.0 -5.49 -12.99 1.92 -11.89 1.68 -0.69 -2.99 0.39 -0.14 -4.91 0.61 -0.24 1.96 0.53 -0.13 3.82 0.55 -0.06 37.32 13.8 2.03 70.17 -10.78 -1.8 74.18 -40.82 3.66 -6.19 40.25 -15.31 -10.32 13.52 -23.72 48.97 -8.43 -12.13 -20.43 6.35 -75.13 5.28 -20.74 1.12 -18.5 54.85 -0.98
31.25 94.87 33.5 -118.45 -2.43 0.46 -2.23 -8.54 -3.82 0.0 25.13 0.0 -15.72 -12.76 5.47 -2.95 -15.03 1.02 0.0 25.22 0.0 -5.44 -13.09 1.85 -11.98 1.42 -0.67 -3.01 0.33 -0.14 -4.95 0.51 -0.24 1.96 0.51 -0.11 3.83 0.52 -0.04 37.32 13.05 2.16 63.74 -11.36 0.65 69.96 -41.75 9.08 15.88 47.52 -12.71 -14.41 13.79 -22.5 47.47 -7.51 -12.17 -19.79 6.9 -75.52 5.74 -19.96 1.18 -20.5 54.54 -3.3
31.02 94.86 33.42 -120.02 -2.36 0.64 -1.94 -8.78 -4.08 -0.0 25.38 -0.0 -14.51 -12.99 5.31 -2.61 -14.78 0.88 -0.0 25.22 -0.0 -5.08 -13.08 1.7 -11.03 1.36 -0.74 -2.77 0.32 -0.16 -4.56 0.49 -0.27 1.96 0.5 -0.12 3.7 0.51 -0.06 37.24 12.87 1.96 56.95 -11.58 2.66 66.9 -41.8 14.6 42.24 53.68 -6.94 -18.05 14.63 -20.55 45.71 -6.7 -11.92 -19.94 8.06 -75.86 5.96 -19.25 1.6 -22.38 54.43 -5.71
30.77 94.86 33.45 -121.76 -2.13 0.66 -1.52 -9.09 -4.25 0.0 25.35 -0.0 -13.37 -13.09 5.35 -2.49 -14.74 0.84 0.0 25.3 0.0 -4.91 -13.12 1.62 -9.99 1.22 -0.68 -2.5 0.28 -0.15 -4.14 0.44 -0.25 1.93 0.5 -0.12 3.19 0.52 -0.08 37.05 12.86 1.73 52.83 -11.77 4.05 62.77 -39.33 18.27 68.7 55.06 0.57 -17.01 14.85 -21.54 42.42 -5.54 -10.99 -18.69 7.23 -75.57 5.38 -19.14 1.87 -22.25 54.87 -6.0
30.58 94.87 33.54 -122.53 -1.74 0.59 -1.31 -9.38 -4.31 -0.0 25.14 0.0 -12.92 -13.06 5.46 -2.31 -15.01 0.85 -0.0 25.39 -0.0 -4.87 -13.24 1.66 -9.52 1.0 -0.58 -2.39 0.23 -0.13 -3.94 0.36 -0.22 1.91 0.53 -0.11 2.77 0.54 -0.08 37.0 13.28 2.02 53.56 -11.27 3.62 62.94 -38.12 17.54 81.47 56.77 1.62 -12.15 14.28 -31.2 41.42 -5.28 -10.36 -19.09 5.99 -75.16 4.55 -19.68 1.97 -20.57 55.63 -5.23
30.55 94.89 33.52 -121.98 -1.46 0.52 -1.41 -9.42 -4.23 0.0 24.95 0.0 -13.44 -13.05 5.55 -2.32 -15.32 0.92 -0.0 25.43 -0.0 -4.96 -13.44 1.69 -9.85 0.83 -0.5 -2.47 0.19 -0.11 -4.08 0.3 -0.19 1.88 0.59 -0.1 2.27 0.61 -0.08 37.0 14.42 2.68 57.62 -10.49 1.96 70.21 -35.95 13.28 65.49 56.9 -11.23 -12.2 14.74 -31.94 41.99 -5.65 -10.19 -19.51 5.15 -75.01 3.4 -20.95 1.88 -18.26 56.92 -1.73
30.47 94.89 33.53 -120.72 -1.35 0.53 -1.71 -9.25 -4.24 -0.0 24.91 -0.0 -14.45 -13.11 5.73 -2.35 -15.54 0.84 0.0 25.48 -0.0 -5.2 -13.6 1.85 -10.61 0.76 -0.51 -2.66 0.18 -0.11 -4.39 0.27 -0.19 1.88 0.62 -0.1 2.27 0.64 -0.08 37.09 15.13 2.89 63.37 -10.36 -0.22 73.6 -38.72 7.74 42.63 52.83 -15.72 -13.38 14.75 -31.34 44.62 -6.59 -10.57 -21.14 4.42 -74.94 3.67 -21.22 1.49 -16.64 56.9 1.14
30.53 94.88 33.45 -119.34 -1.05 0.42 -2.28 -9.28 -4.03 0.0 24.79 0.0 -15.31 -13.13 5.88 -2.58 -16.05 1.0 -0.0 25.6 -0.0 -5.36 -13.71 2.0 -11.43 0.58 -0.41 -2.87 0.13 -0.09 -4.72 0.2 -0.15 1.89 0.63 -0.09 2.6 0.64 -0.05 37.27 15.08 3.19 69.26 -10.9 -3.34 75.98 -40.56 1.88 14.79 46.29 -17.92 -10.78 13.78 -32.49 47.3 -7.21 -11.41 -21.18 4.44 -75.42 4.47 -20.55 1.43 -17.16 56.99 1.11
30.6 94.88 33.32 -118.07 -0.56 0.21 -2.77 -9.42 -3.69 -0.0 24.55 -0.0 -16.19 -13.12 6.08 -3.14 -16.75 1.33 0.0 25.83 0.0 -5.27 -14.04 2.04 -12.19 0.31 -0.22 -3.06 0.07 -0.05 -5.03 0.11 -0.08 1.93 0.61 -0.08 3.32 0.62 -0.0 37.52 14.86 3.38 72.11 -11.15 -5.74 81.64 -43.69 -3.85 -8.53 37.55 -17.55 -13.93 13.06 -26.77 49.92 -7.58 -12.85 -20.94 5.52 -75.53 4.53 -18.86 2.2 -17.85 55.51 -0.36
30.62 94.88 33.15 -117.16 -0.35 0.16 -3.19 -9.38 -3.52 -0.0 24.44 -0.0 -16.75 -13.2 6.19 -3.27 -17.04 1.47 0.0 25.89 -0.0 -5.68 -14.15 2.16 -12.74 0.19 -0.15 -3.2 0.04 -0.03 -5.26 0.06 -0.06 1.98 0.58 -0.1 4.26 0.58 0.01 37.65 14.53 2.92 69.48 -11.6 -5.18 79.07 -43.52 -0.57 -11.51 37.62 -16.52 -15.24 12.69 -16.94 50.87 -7.51 -13.91 -19.98 6.61 -75.58 5.67 -19.29 1.43 -20.51 56.81 -1.44
30.63 94.86 33.01 -118.25 -0.47 0.37 -2.99 -9.53 -3.71 -0.0 24.81 0.0 -15.97 -13.47 6.08 -3.01 -16.71 1.38 -0.0 25.81 -0.0 -5.5 -14.07 2.08 -12.09 0.24 -0.29 -3.04 0.05 -0.07 -4.99 0.07 -0.11 2.0 0.54 -0.14 4.59 0.55 -0.05 37.51 14.28 2.03 64.51 -11.7 -2.96 74.63 -43.35 5.59 -1.37 44.1 -13.95 -18.51 18.93 -6.65 48.53 -7.18 -13.69 -18.61 7.39 -75.88 5.57 -18.31 1.69 -21.48 56.05 -2.47
30.5 94.87 32.91 -120.38 -0.75 0.46 -2.22 -9.43 -3.88 0.0 24.89 0.0 -14.76 -13.61 5.97 -2.5 -16.06 1.36 -0.0 25.78 -0.0 -5.17 -14.04 2.03 -10.81 0.4 -0.38 -2.71 0.09 -0.09 -4.47 0.14 -0.15 1.96 0.55 -0.13 3.76 0.56 -0.07 37.33 14.21 2.05 58.1 -11.99 -0.42 67.98 -35.4 13.48 26.39 51.34 -2.68 -17.76 20.35 3.25 45.51 -6.99 -13.36 -17.93 7.55 -75.91 5.09 -16.96 2.08 -21.1 56.35 -2.84
30.41 94.86 32.69 -121.89 -1.17 0.54 -1.55 -9.17 -3.91 -0.0 25.14 0.0 -13.99 -13.83 5.73 -2.14 -15.37 1.4 0.0 25.81 0.0 -4.93 -13.91 1.99 -9.9 0.65 -0.48 -2.48 0.15 -0.11 -4.1 0.23 -0.18 1.93 0.51 -0.13 3.19 0.53 -0.09 37.06 13.18 1.71 53.2 -12.73 2.14 64.64 -28.8 16.57 50.75 49.69 10.87 -12.3 17.11 -1.67 43.08 -6.94 -12.51 -18.73 6.65 -75.78 3.96 -17.55 2.01 -18.13 54.69 -1.81
30.38 94.88 32.58 -122.29 -1.02 0.5 -1.26 -9.17 -3.82 -0.0 24.94 -0.0 -14.0 -13.84 5.74 -2.06 -15.36 1.52 -0.0 25.75 -0.0 -4.83 -14.09 1.89 -9.66 0.57 -0.43 -2.42 0.13 -0.1 -4.0 0.2 -0.16 1.92 0.49 -0.1 2.97 0.51 -0.06 37.04 12.3 2.08 51.74 -12.11 2.08 63.44 -28.41 17.62 76.29 45.24 15.56 -19.41 13.9 -9.84 41.94 -7.09 -12.17 -19.39 5.28 -75.28 3.5 -18.17 1.83 -16.16 57.45 1.97
30.39 94.89 32.52 -121.28 -0.69 0.43 -1.48 -9.23 -3.68 -0.0 24.78 -0.0 -14.82 -13.84 5.79 -2.55 -15.78 1.64 -0.0 25.75 -0.0 -4.98 -14.12 1.89 -10.26 0.37 -0.35 -2.57 0.08 -0.08 -4.25 0.13 -0.14 1.91 0.51 -0.07 2.92 0.52 -0.02 37.11 12.19 2.64 52.52 -11.85 1.16 63.91 -33.72 17.03 86.76 46.4 9.91 -20.65 14.67 -15.4 41.61 -7.3 -11.9 -20.43 4.26 -75.37 3.18 -18.43 1.56 -14.47 57.97 4.16
30.32 94.88 32.53 -120.61 -0.66 0.52 -1.6 -9.14 -3.78 -0.0 24.86 -0.0 -15.36 -13.94 5.86 -2.88 -15.83 1.52 -0.0 25.69 0.0 -5.09 -14.03 1.94 -10.67 0.34 -0.4 -2.68 0.08 -0.09 -4.41 0.11 -0.16 1.91 0.55 -0.04 2.92 0.55 0.01 37.26 12.74 3.33 54.63 -12.27 0.03 64.83 -38.34 16.25 90.63 49.68 4.26 -20.12 15.55 -19.34 42.54 -7.82 -12.21 -21.19 4.08 -75.55 3.19 -18.37 1.47 -13.68 58.14 5.34
30.22 94.88 32.57 -120.19 -0.71 0.57 -1.68 -8.98 -3.88 -0.0 24.92 -0.0 -15.72 -14.02 5.92 -3.11 -15.78 1.41 -0.0 25.68 -0.0 -5.17 -13.97 1.98 -10.92 0.37 -0.44 -2.74 0.08 -0.1 -4.52 0.12 -0.17 1.91 0.57 -0.02 2.9 0.57 0.04 37.34 12.98 3.78 56.9 -12.33 -0.77 66.96 -41.21 15.43 84.4 53.4 -4.48 -17.09 14.65 -25.17 43.71 -7.97 -12.49 -21.39 4.22 -75.93 3.94 -17.96 1.38 -14.62 58.07 4.91
30.15 94.87 32.62 -119.84 -0.88 0.63 -1.79 -8.73 -3.99 0.0 24.94 0.0 -15.99 -14.08 5.98 -3.23 -15.61 1.28 0.0 25.64 -0.0 -5.25 -13.91 2.05 -11.13 0.46 -0.5 -2.8 0.1 -0.12 -4.6 0.15 -0.2 1.9 0.58 -0.03 2.83 0.58 0.03 37.32 13.22 3.7 58.71 -12.24 -1.34 69.66 -42.27 14.0 62.07 52.92 -16.76 -13.54 14.11 -29.19 44.81 -7.96 -12.64 -21.27 4.58 -76.27 4.76 -17.36 1.49 -16.04 58.08 3.51
30.13 94.87 32.72 -119.58 -0.97 0.58 -1.74 -8.54 -3.98 0.0 24.85 -0.0 -16.36 -14.03 6.09 -3.27 -15.6 1.29 -0.0 25.73 -0.0 -5.29 -13.98 2.1 -11.29 0.52 -0.49 -2.83 0.12 -0.11 -4.67 0.17 -0.19 1.91 0.57 -0.04 2.99 0.57 0.02 37.35 13.27 3.53 62.28 -12.57 -2.93 71.77 -45.22 8.93 37.87 48.74 -18.67 -14.87 14.28 -28.76 46.2 -7.96 -12.84 -21.19 5.02 -76.38 5.14 -17.08 1.62 -16.99 58.37 2.55
30.27 94.87 32.78 -119.33 -0.78 0.48 -1.76 -8.7 -3.87 0.0 24.74 0.0 -16.64 -13.91 6.16 -3.2 -15.92 1.43 0.0 25.78 0.0 -5.23 -14.18 2.02 -11.44 0.41 -0.4 -2.87 0.09 -0.09 -4.73 0.14 -0.16 1.94 0.56 -0.06 3.5 0.56 0.02 37.45 13.35 3.23 65.88 -12.13 -5.24 77.73 -44.63 1.09 12.73 42.63 -18.69 -12.37 13.34 -29.93 47.04 -7.94 -12.95 -20.98 5.33 -76.39 5.44 -16.93 1.7 -17.7 58.6 1.77
30.37 94.88 32.85 -119.19 -0.76 0.42 -1.65 -8.71 -3.8 0.0 24.65 0.0 -16.9 -13.81 6.22 -3.24 -16.03 1.51 0.0 25.79 0.0 -5.23 -14.18 2.0 -11.52 0.41 -0.37 -2.89 0.09 -0.08 -4.76 0.14 -0.14 1.96 0.56 -0.08 3.89 0.56 0.02 37.54 13.72 3.03 67.87 -11.62 -6.52 81.55 -43.36 -2.79 -5.05 37.87 -17.57 -10.99 13.21 -26.8 47.47 -7.97 -13.11 -20.94 5.43 -76.33 5.54 -16.95 1.75 -17.98 59.0 1.49
30.42 94.88 32.88 -119.21 -1.04 0.43 -1.56 -8.44 -3.81 0.0 24.66 -0.0 -17.0 -13.78 6.2 -3.28 -15.75 1.51 -0.0 25.74 -0.0 -5.16 -14.11 1.97 -11.51 0.58 -0.42 -2.89 0.13 -0.09 -4.76 0.2 -0.16 1.96 0.57 -0.09 3.76 0.58 -0.01 37.5 14.13 2.87 67.54 -11.63 -5.36 78.97 -43.06 1.17 -10.15 36.57 -16.15 -10.37 13.63 -22.9 47.57 -8.31 -13.37 -20.91 5.37 -76.37 5.62 -16.92 1.64 -18.01 59.42 1.78
30.42 94.86 32.91 -120.09 -1.46 0.52 -1.07 -8.25 -3.95 -0.0 24.91 -0.0 -16.63 -13.87 6.16 -3.05 -15.25 1.4 -0.0 25.72 -0.0 -4.99 -13.89 1.92 -10.98 0.82 -0.53 -2.76 0.19 -0.12 -4.54 0.29 -0.2 1.98 0.55 -0.12 4.19 0.56 -0.02 37.52 14.16 2.48 65.57 -11.91 -2.96 75.91 -41.15 6.17 -10.94 40.09 -14.29 -4.45 12.05 -30.14 46.92 -8.35 -13.32 -20.96 4.96 -76.33 6.1 -16.6 2.06 -17.12 59.97 2.08
30.43 94.86 33.01 -120.76 -1.51 0.49 -0.95 -8.29 -4.0 -0.0 24.86 0.0 -16.11 -13.81 6.12 -2.88 -15.16 1.42 0.0 25.71 0.0 -4.99 -13.79 1.86 -10.58 0.86 -0.51 -2.65 0.2 -0.11 -4.38 0.31 -0.19 2.01 0.54 -0.12 4.84 0.54 0.0 37.63 13.93 2.47 60.77 -12.61 -0.0 67.49 -37.64 15.19 8.43 50.06 -10.24 -5.68 10.12 -32.97 45.72 -8.13 -13.05 -21.23 4.64 -75.96 6.41 -17.0 2.05 -15.51 61.17 3.1
30.47 94.85 33.05 -120.98 -1.43 0.48 -0.98 -8.46 -4.02 -0.0 24.93 -0.0 -15.89 -13.83 6.06 -3.03 -15.25 1.46 0.0 25.7 -0.0 -4.9 -13.66 1.72 -10.45 0.81 -0.49 -2.62 0.19 -0.11 -4.32 0.29 -0.18 2.05 0.5 -0.13 5.64 0.51 -0.01 37.66 13.57 2.06 55.92 -12.99 1.94 62.5 -32.0 18.41 48.39 56.14 6.96 -7.37 12.05 -28.96 44.79 -7.31 -12.28 -21.72 4.15 -75.62 5.84 -16.79 2.29 -14.99 61.37 3.2
30.45 94.86 33.18 -120.83 -0.92 0.55 -1.14 -8.99 -4.17 -0.0 24.96 -0.0 -15.87 -13.84 6.07 -3.24 -15.75 1.36 0.0 25.6 0.0 -4.9 -13.64 1.59 -10.54 0.5 -0.45 -2.64 0.11 -0.1 -4.36 0.17 -0.18 2.07 0.49 -0.14 6.14 0.51 -0.02 37.68 13.57 1.88 52.48 -12.88 1.81 60.08 -26.1 17.61 83.31 52.03 14.33 -11.06 12.56 -21.91 43.98 -6.52 -11.7 -21.9 3.94 -75.09 5.7 -16.84 2.26 -15.02 61.65 2.74
30.25 94.86 33.28 -121.02 -0.62 0.67 -1.1 -9.24 -4.44 -0.0 24.97 -0.0 -15.74 -13.87 6.15 -3.21 -15.92 1.14 -0.0 25.53 -0.0 -4.88 -13.69 1.52 -10.42 0.3 -0.48 -2.61 0.07 -0.11 -4.31 0.09 -0.19 2.05 0.54 -0.14 5.72 0.55 0.01 37.77 14.53 2.35 52.25 -11.95 0.73 63.12 -27.71 14.93 93.07 51.01 9.99 -9.71 12.43 -27.04 42.96 -6.06 -11.32 -22.0 3.89 -75.09 5.79 -16.63 2.25 -15.71 61.84 1.82
